<svg xmlns="http://www.w3.org/2000/svg" version="1.1" xmlns:xlink="http://www.w3.org/1999/xlink" xmlns:svgjs="http://svgjs.dev/svgjs" width="1500" height="939" viewBox="0 0 1500 939"><g transform="matrix(1,0,0,1,-0.9090909090909918,-1.5145161290323017)"><svg viewBox="0 0 396 248" data-background-color="#ffffff" preserveAspectRatio="xMidYMid meet" height="939" width="1500" xmlns="http://www.w3.org/2000/svg" xmlns:xlink="http://www.w3.org/1999/xlink"><g id="tight-bounds" transform="matrix(1,0,0,1,0.2400000000000091,0.4000000000000057)"><svg viewBox="0 0 395.52 247.2" height="247.2" width="395.52"><g><svg></svg></g><g><svg viewBox="0 0 395.52 247.2" height="247.2" width="395.52"><g transform="matrix(1,0,0,1,75.54432,104.53907698057118)"><svg viewBox="0 0 244.43135999999998 38.121846038857626" height="38.121846038857626" width="244.43135999999998"><g><svg viewBox="0 0 244.43135999999998 38.121846038857626" height="38.121846038857626" width="244.43135999999998"><g><svg viewBox="0 0 244.43135999999998 38.121846038857626" height="38.121846038857626" width="244.43135999999998"><g id="textblocktransform"><svg viewBox="0 0 244.43135999999998 38.121846038857626" height="38.121846038857626" width="244.43135999999998" id="textblock"><g><svg viewBox="0 0 244.43135999999998 38.121846038857626" height="38.121846038857626" width="244.43135999999998"><g transform="matrix(1,0,0,1,0,0)"><svg width="244.43135999999998" viewBox="0 -35.86 229.94 35.86" height="38.121846038857626" data-palette-color="#000000"><path d="M19.04-28.59L19.04-1.29Q19.04-0.56 18.74-0.28 18.43 0 17.7 0L17.7 0 12.5 0Q11.77 0 11.46-0.28 11.16-0.56 11.16-1.29L11.16-1.29 11.16-28.59 3.88-28.59Q3.3-28.59 3-28.78L3-28.78Q2.37-29.22 1.7-29.83 1.03-30.44 0.24-31.3L0.24-31.3Q0-31.62 0-31.81L0-31.81Q0-32.03 0.24-32.3L0.24-32.3Q1.03-33.15 1.7-33.76 2.37-34.38 3-34.81L3-34.81Q3.34-35.01 3.88-35.01L3.88-35.01 26.34-35.01Q26.93-35.01 27.22-34.81L27.22-34.81Q27.86-34.38 28.54-33.76 29.22-33.15 29.98-32.3L29.98-32.3Q30.22-31.98 30.22-31.79L30.22-31.79Q30.22-31.57 29.98-31.3L29.98-31.3Q29.22-30.44 28.54-29.83 27.86-29.22 27.22-28.78L27.22-28.78Q26.88-28.59 26.34-28.59L26.34-28.59 19.04-28.59ZM47.65 0L40.16 0Q37.64 0 36.34-0.63 35.03-1.27 34.58-2.71 34.13-4.15 34.13-6.54L34.13-6.54 34.13-28.47Q34.13-30.91 34.58-32.34 35.03-33.76 36.34-34.39 37.64-35.01 40.16-35.01L40.16-35.01 47.65-35.01Q52.9-35.01 56.85-33.45 60.79-31.88 62.99-28.16 65.18-24.44 65.18-17.94L65.18-17.94Q65.18-11.45 62.99-7.51 60.79-3.56 56.85-1.78 52.9 0 47.65 0L47.65 0ZM45.87-28.59L44.8-28.59Q43.19-28.59 42.6-27.91 42.01-27.22 42.01-25.56L42.01-25.56 42.01-9.45Q42.01-7.81 42.6-7.1 43.19-6.4 44.8-6.4L44.8-6.4 45.92-6.4Q51.14-6.4 54.01-8.96 56.88-11.52 56.88-17.85L56.88-17.85Q56.88-22.07 55.58-24.4 54.27-26.73 51.8-27.66 49.34-28.59 45.87-28.59L45.87-28.59ZM90.13-33.08L90.13-33.08Q91.47-31.2 92.88-28.23 94.28-25.27 95.6-21.73 96.92-18.19 97.98-14.49 99.04-10.79 99.73-7.37 100.41-3.96 100.51-1.29L100.51-1.29Q100.53 0 99.34 0L99.34 0 93.43 0Q92.28 0 92.23-1.15L92.23-1.15Q92.13-3.88 91.35-7.79L91.35-7.79 78.02-7.79Q77.34-3.98 77.24-1.15L77.24-1.15Q77.19 0 76 0L76 0 70.21 0Q69.77 0 69.48-0.26 69.18-0.51 69.21-1.15L69.21-1.15Q69.33-3.86 70-7.31 70.67-10.77 71.75-14.48 72.82-18.19 74.14-21.74 75.46-25.29 76.87-28.25 78.29-31.2 79.63-33.08L79.63-33.08Q80.34-34.08 81.14-34.55 81.93-35.01 83.1-35.01L83.1-35.01 86.62-35.01Q87.81-35.01 88.62-34.55 89.42-34.08 90.13-33.08ZM84.76-27.29L84.61-27.29Q83-24.73 81.66-21.17 80.32-17.6 79.34-13.84L79.34-13.84 89.94-13.84Q88.91-17.6 87.57-21.17 86.23-24.73 84.76-27.29L84.76-27.29ZM121.38-28.59L121.38-1.29Q121.38-0.56 121.07-0.28 120.77 0 120.04 0L120.04 0 114.84 0Q114.1 0 113.8-0.28 113.49-0.56 113.49-1.29L113.49-1.29 113.49-28.59 106.22-28.59Q105.63-28.59 105.34-28.78L105.34-28.78Q104.7-29.22 104.03-29.83 103.36-30.44 102.58-31.3L102.58-31.3Q102.34-31.62 102.34-31.81L102.34-31.81Q102.34-32.03 102.58-32.3L102.58-32.3Q103.36-33.15 104.03-33.76 104.7-34.38 105.34-34.81L105.34-34.81Q105.68-35.01 106.22-35.01L106.22-35.01 128.68-35.01Q129.26-35.01 129.56-34.81L129.56-34.81Q130.19-34.38 130.88-33.76 131.56-33.15 132.32-32.3L132.32-32.3Q132.56-31.98 132.56-31.79L132.56-31.79Q132.56-31.57 132.32-31.3L132.32-31.3Q131.56-30.44 130.88-29.83 130.19-29.22 129.56-28.78L129.56-28.78Q129.22-28.59 128.68-28.59L128.68-28.59 121.38-28.59ZM149.99 0L142.49 0Q139.98 0 138.67-0.63 137.37-1.27 136.92-2.71 136.46-4.15 136.46-6.54L136.46-6.54 136.46-28.47Q136.46-30.91 136.92-32.34 137.37-33.76 138.67-34.39 139.98-35.01 142.49-35.01L142.49-35.01 149.99-35.01Q155.24-35.01 159.18-33.45 163.12-31.88 165.32-28.16 167.52-24.44 167.52-17.94L167.52-17.94Q167.52-11.45 165.32-7.51 163.12-3.56 159.18-1.78 155.24 0 149.99 0L149.99 0ZM148.21-28.59L147.13-28.59Q145.52-28.59 144.94-27.91 144.35-27.22 144.35-25.56L144.35-25.56 144.35-9.45Q144.35-7.81 144.94-7.1 145.52-6.4 147.13-6.4L147.13-6.4 148.26-6.4Q153.48-6.4 156.35-8.96 159.22-11.52 159.22-17.85L159.22-17.85Q159.22-22.07 157.91-24.4 156.61-26.73 154.14-27.66 151.67-28.59 148.21-28.59L148.21-28.59ZM191.93 0L179.65 0Q177.14 0 175.83-0.63 174.52-1.27 174.07-2.71 173.62-4.15 173.62-6.54L173.62-6.54 173.62-28.47Q173.62-30.91 174.07-32.34 174.52-33.76 175.83-34.39 177.14-35.01 179.65-35.01L179.65-35.01 191.13-35.01Q191.71-35.01 192-34.81L192-34.81Q192.64-34.38 193.32-33.76 194.01-33.15 194.76-32.3L194.76-32.3Q195.01-31.98 195.01-31.79L195.01-31.79Q195.01-31.57 194.76-31.3L194.76-31.3Q194.01-30.44 193.32-29.83 192.64-29.22 192-28.78L192-28.78Q191.66-28.59 191.13-28.59L191.13-28.59 184.29-28.59Q182.68-28.59 182.09-27.91 181.51-27.22 181.51-25.56L181.51-25.56 181.51-20.83 190.27-20.83Q190.86-20.83 191.15-20.63L191.15-20.63Q191.78-20.19 192.47-19.58 193.15-18.97 193.91-18.12L193.91-18.12Q194.15-17.8 194.15-17.6L194.15-17.6Q194.15-17.38 193.91-17.11L193.91-17.11Q193.15-16.26 192.47-15.65 191.78-15.04 191.15-14.6L191.15-14.6Q190.81-14.4 190.27-14.4L190.27-14.4 181.51-14.4 181.51-9.47Q181.51-7.84 182.09-7.13 182.68-6.42 184.29-6.42L184.29-6.42 191.93-6.42Q192.52-6.42 192.81-6.23L192.81-6.23Q193.44-5.79 194.13-5.18 194.81-4.57 195.57-3.71L195.57-3.71Q195.81-3.39 195.81-3.2L195.81-3.2Q195.81-2.98 195.57-2.71L195.57-2.71Q194.81-1.86 194.13-1.25 193.44-0.63 192.81-0.2L192.81-0.2Q192.47 0 191.93 0L191.93 0ZM209.02-1.93L209.02-1.93Q207.07-5 205.2-8.83 203.33-12.65 201.82-16.69 200.3-20.73 199.4-24.48 198.5-28.22 198.5-31.18L198.5-31.18Q198.5-31.81 198.76-32.18L198.76-32.18Q199.33-32.96 200.14-33.8 200.96-34.64 202.08-35.57L202.08-35.57Q202.45-35.86 202.77-35.86L202.77-35.86Q203.09-35.86 203.4-35.57L203.4-35.57Q204.55-34.64 205.36-33.8 206.16-32.96 206.72-32.18L206.72-32.18Q206.99-31.81 206.99-31.1L206.99-31.1 206.99-31.2Q206.99-29.13 207.57-26.21 208.14-23.29 209.15-20.08 210.17-16.87 211.47-13.85 212.78-10.84 214.27-8.59L214.27-8.59 214.41-8.59Q216.05-10.84 217.38-13.83 218.71-16.82 219.67-20.02 220.64-23.22 221.16-26.14 221.69-29.05 221.69-31.18L221.69-31.18 221.69-31.1Q221.69-31.81 221.93-32.18L221.93-32.18Q223.11-33.79 225.16-35.57L225.16-35.57Q225.55-35.86 225.84-35.86L225.84-35.86Q226.11-35.86 226.47-35.57L226.47-35.57Q227.57-34.64 228.35-33.8 229.14-32.96 229.7-32.18L229.7-32.18Q229.94-31.79 229.94-31.13L229.94-31.13Q229.94-28.91 229.32-25.99 228.7-23.07 227.62-19.82 226.55-16.58 225.18-13.33 223.81-10.08 222.3-7.14 220.79-4.2 219.27-1.93L219.27-1.93Q218 0 215.81 0L215.81 0 212.44 0Q210.24 0 209.02-1.93ZM198.5-31.1L198.5-31.2 198.5-31.18 198.5-31.1ZM229.94-31.13L229.94-31.18 229.94-31.1 229.94-31.13Z" opacity="1" transform="matrix(1,0,0,1,0,0)" fill="#000000" class="wordmark-text-0" data-fill-palette-color="primary" id="text-0"></path></svg></g></svg></g></svg></g></svg></g></svg></g></svg></g><path d="M182.117 98.539L182.117 35.87 6.658 35.87 6.658 211.33 182.117 211.33 182.117 148.661 178.679 148.661 178.679 207.892 10.096 207.892 10.096 39.308 178.679 39.308 178.679 98.539Z" fill="#000000" stroke="transparent" data-fill-palette-color="tertiary"></path></svg></g><defs></defs></svg><rect width="395.52" height="247.2" fill="none" stroke="none" visibility="hidden"></rect></g></svg></g></svg>